<!--?xml version="1.0" standalone="no"?-->
<svg id="sw-js-blob-svg" viewBox="0 0 100 100" xmlns="http://www.w3.org/2000/svg">
  <defs>
    <linearGradient id="sw-gradient" x1="0" x2="1" y1="1" y2="0">
      <stop id="stop1" stop-color="rgba(248, 117, 55, 1)" offset="0%"></stop>
      <stop id="stop2" stop-color="rgba(251, 168, 31, 1)" offset="100%"></stop>
    </linearGradient>
  </defs>
  <path fill="url(#sw-gradient)" d="M24.7,-34.6C30.7,-29.5,33.6,-20.7,36.3,-11.9C39.1,-3.1,41.7,5.6,40.1,13.8C38.5,21.9,32.6,29.4,25.3,33.6C17.9,37.9,8.9,38.8,-0.2,39.1C-9.4,39.5,-18.8,39.1,-24.8,34.4C-30.8,29.7,-33.4,20.7,-34.8,12.3C-36.1,3.9,-36.1,-3.9,-34,-11.3C-31.9,-18.6,-27.7,-25.4,-21.6,-30.5C-15.6,-35.6,-7.8,-39,0.7,-40C9.3,-41,18.6,-39.7,24.7,-34.6Z" width="100%" height="100%" transform="translate(50 50)" style="transition: all 0.3s ease 0s;" stroke-width="0"></path>
</svg>
