<svg viewBox="0 0 200 200" xmlns="http://www.w3.org/2000/svg">
  <path fill="rgba(150, 225, 235, 0.5)" d="M31.6,-47.6C44.8,-40.7,62,-38.4,72.3,-29.1C82.6,-19.8,86,-3.5,80.4,9.1C74.8,21.7,60.1,30.5,48.6,40C37.1,49.5,28.8,59.7,18.1,63.8C7.4,68,-5.8,66.2,-18.1,62.2C-30.4,58.3,-41.9,52.3,-49.1,43C-56.4,33.8,-59.4,21.4,-59.7,9.5C-60,-2.4,-57.6,-13.8,-52.5,-23.5C-47.3,-33.2,-39.4,-41.1,-30.2,-49.9C-21,-58.7,-10.5,-68.3,-0.7,-67.3C9.2,-66.3,18.4,-54.6,31.6,-47.6Z" transform="translate(100 100)" />
</svg>