<svg viewBox="0 0 200 200" xmlns="http://www.w3.org/2000/svg">
  <path fill="rgba(150, 225, 235, 0.5)" d="M40.3,-61.2C50.6,-56.1,56.2,-42.1,58.2,-29.1C60.2,-16.1,58.7,-3.9,59.5,10.4C60.3,24.7,63.4,41.2,57.1,50.9C50.9,60.5,35.2,63.4,20.5,66.1C5.8,68.7,-7.9,71.2,-20.8,68.5C-33.7,65.8,-45.8,57.9,-51.6,47C-57.4,36.1,-57,22.1,-58.5,8.7C-60.1,-4.8,-63.6,-17.7,-62.8,-32.4C-61.9,-47.2,-56.7,-63.6,-45.5,-68.3C-34.3,-73,-17.2,-65.9,-1.1,-64.2C15,-62.5,30,-66.2,40.3,-61.2Z" transform="translate(100 100)" />
</svg>

