<!--?xml version="1.0" standalone="no"?-->
<svg id="sw-js-blob-svg" viewBox="0 0 100 100" xmlns="http://www.w3.org/2000/svg">
  <defs>
    <linearGradient id="sw-gradient" x1="0" x2="1" y1="1" y2="0">
      <stop id="stop1" stop-color="rgba(248, 117, 55, 1)" offset="0%"></stop>
      <stop id="stop2" stop-color="rgba(251, 168, 31, 1)" offset="100%"></stop>
    </linearGradient>
  </defs>
  <path fill="url(#sw-gradient)" d="M22.3,-40.4C28,-35.4,31.1,-27.6,33.4,-20.3C35.8,-13.1,37.4,-6.6,37.2,-0.1C37,6.3,34.9,12.6,32,18.9C29.1,25.2,25.4,31.3,19.9,34.9C14.4,38.5,7.2,39.4,0.2,39.1C-6.9,38.8,-13.7,37.2,-20,34.1C-26.2,31,-31.8,26.3,-34.9,20.4C-37.9,14.4,-38.3,7.2,-38.4,-0.1C-38.5,-7.4,-38.4,-14.7,-35.9,-21.6C-33.5,-28.6,-28.8,-35.1,-22.4,-39.7C-16,-44.3,-8,-47,0.2,-47.3C8.3,-47.6,16.7,-45.4,22.3,-40.4Z" width="100%" height="100%" transform="translate(50 50)" style="transition: all 0.3s ease 0s;" stroke-width="0"></path>
</svg>
