<svg viewBox="0 0 200 200" xmlns="http://www.w3.org/2000/svg">
  <path fill="rgba(150, 225, 235, 0.5)" d="M40.9,-59.9C54.2,-55.1,67,-45.8,73.8,-33.1C80.7,-20.3,81.6,-4.2,75.6,8.2C69.7,20.6,56.9,29.4,45.8,36.4C34.6,43.3,25.2,48.4,15.3,50.6C5.4,52.8,-4.9,52.2,-19,53.3C-33.2,54.4,-51.3,57.3,-62.1,50.6C-72.9,43.9,-76.4,27.7,-73,13.9C-69.7,0.2,-59.4,-11.1,-51.9,-22C-44.3,-33,-39.5,-43.5,-31.3,-50.6C-23.1,-57.8,-11.6,-61.5,1.1,-63.3C13.8,-65,27.6,-64.7,40.9,-59.9Z" transform="translate(100 100)" />
</svg>