<!--?xml version="1.0" standalone="no"?-->
<svg id="sw-js-blob-svg" viewBox="0 0 100 100" xmlns="http://www.w3.org/2000/svg">
  <defs>
    <linearGradient id="sw-gradient" x1="0" x2="1" y1="1" y2="0">
      <stop id="stop1" stop-color="rgba(248, 117, 55, 1)" offset="0%"></stop>
      <stop id="stop2" stop-color="rgba(251, 168, 31, 1)" offset="100%"></stop>
    </linearGradient>
  </defs>
  <path fill="url(#sw-gradient)" d="M22.9,-35.3C29.3,-31.5,33.9,-24.5,36.8,-17.1C39.8,-9.7,41.2,-1.8,38.5,4.3C35.7,10.4,28.8,14.7,23.1,18.4C17.4,22.2,12.9,25.5,7.8,27.4C2.7,29.4,-3.1,29.9,-10.1,29.9C-17,29.9,-25.1,29.3,-31.2,25.3C-37.2,21.3,-41.2,13.9,-42.9,5.8C-44.7,-2.3,-44.3,-11.2,-40.5,-18.2C-36.8,-25.2,-29.8,-30.3,-22.5,-33.6C-15.2,-37,-7.6,-38.6,0.3,-39.1C8.2,-39.6,16.5,-39,22.9,-35.3Z" width="100%" height="100%" transform="translate(50 50)" style="transition: all 0.3s ease 0s;" stroke-width="0"></path>
</svg>
